<?xml version="1.0" encoding="UTF-8" standalone="no"?>
<svg
   width="434.56952pt"
   height="287.49628pt"
   viewBox="0 0 1033.9758 674.69665"
   version="1.1"
   id="svg10"
   sodipodi:docname="valorant.svg"
   inkscape:version="1.3.2 (091e20e, 2023-11-25, custom)"
   xmlns:inkscape="http://www.inkscape.org/namespaces/inkscape"
   xmlns:sodipodi="http://sodipodi.sourceforge.net/DTD/sodipodi-0.dtd"
   xmlns="http://www.w3.org/2000/svg"
   xmlns:svg="http://www.w3.org/2000/svg">
  <defs
     id="defs10" />
  <sodipodi:namedview
     id="namedview10"
     pagecolor="#ffffff"
     bordercolor="#000000"
     borderopacity="0.25"
     inkscape:showpageshadow="2"
     inkscape:pageopacity="0.0"
     inkscape:pagecheckerboard="0"
     inkscape:deskcolor="#d1d1d1"
     inkscape:document-units="pt"
     inkscape:zoom="2.0530303"
     inkscape:cx="289.8155"
     inkscape:cy="193.12915"
     inkscape:window-width="1920"
     inkscape:window-height="1009"
     inkscape:window-x="-8"
     inkscape:window-y="-8"
     inkscape:window-maximized="1"
     inkscape:current-layer="svg10" />
  <g
     id="ff4655ff"
     transform="translate(0,-8.9636391)">
    <path
       fill="#ff4655"
       opacity="1"
       d="m 245.44,4.65 c 3.17,-1.89 5.19,1.93 6.9,3.94 110.03,137.65 220.19,275.2 330.21,412.85 2.26,1.96 0.55,6.15 -2.5,5.7 -52.68,0.06 -105.37,0.02 -158.05,0.02 -4.22,0.05 -8.26,-2.05 -10.85,-5.34 C 356.49,353.53 301.86,285.21 247.2,216.91 c -2.32,-2.76 -3.52,-6.33 -3.37,-9.92 0,-65.98 0.02,-131.97 -0.02,-197.95 0.03,-1.56 -0.03,-3.58 1.63,-4.39 z"
       id="path1"
       style="fill:#ffffff;fill-opacity:1" />
    <path
       fill="#ff4655"
       opacity="1"
       d="m 754.32,4.33 c 2.25,-0.85 4.73,1.23 4.4,3.59 0.08,66.01 -0.01,132.02 0.04,198.03 0.15,3.74 -0.67,7.61 -3.1,10.55 -16.61,20.78 -33.24,41.55 -49.85,62.32 -2.77,3.6 -7.3,5.59 -11.83,5.36 -52.33,-0.05 -104.67,0.03 -157,-0.04 -3.09,0.48 -4.85,-3.69 -2.57,-5.7 72.57,-90.79 145.2,-181.55 217.81,-272.32 0.55,-0.78 1.25,-1.38 2.1,-1.79 z"
       id="path2"
       style="fill:#ffffff;fill-opacity:1" />
    <path
       fill="#ff4655"
       opacity="1"
       d="m 392.51,540.68 c 15.88,-2.44 32.55,0.37 46.67,8.09 13.69,7.41 24.94,19.24 31.63,33.31 7.42,15.43 9.15,33.47 4.96,50.07 -3.98,16.07 -13.61,30.65 -26.75,40.72 -22.47,17.7 -55.4,20.31 -80.42,6.48 -14.4,-7.73 -26.08,-20.36 -32.67,-35.32 -8.3,-18.58 -8.41,-40.61 -0.32,-59.29 9.75,-23.16 32.01,-40.47 56.9,-44.06 m 4.01,25 c -15.94,2.41 -29.96,13.73 -36.21,28.52 -6.46,14.72 -5.19,32.57 3.42,46.16 7.06,11.45 19.1,19.79 32.42,21.93 13.54,2.38 27.96,-1.81 38.28,-10.85 11.77,-10.07 18.14,-25.95 16.81,-41.37 -1,-13.76 -8.06,-26.96 -19.07,-35.31 -9.98,-7.72 -23.18,-11.13 -35.65,-9.08 z"
       id="path3"
       style="fill:#ffffff;fill-opacity:1" />
    <path
       fill="#ff4655"
       opacity="1"
       d="m 0,544.09 c 6.18,-1.68 12.71,-0.32 19.03,-0.8 2.25,0.31 5.67,-0.85 6.94,1.69 0.44,3.31 0.16,6.66 0.2,10 0,29.11 -0.01,58.23 0,87.34 25.52,-31.89 51.01,-63.8 76.5,-95.71 1.33,-1.66 3.14,-3.13 5.37,-3.17 7.32,-0.32 14.65,0.04 21.98,-0.14 2.74,0.05 5.78,-0.47 8.12,1.35 -8.53,11.24 -17.57,22.09 -26.31,33.17 -26.2,32.8 -52.41,65.59 -78.62,98.38 -1.95,2.38 -3.66,5 -5.99,7.06 -2.29,1.89 -5.48,1.3 -8.22,1.45 -6.33,-0.22 -12.7,0.34 -19,-0.44 z"
       id="path4"
       style="fill:#ffffff;fill-opacity:1" />
    <path
       fill="#ff4655"
       opacity="1"
       d="m 177.2,549.17 c 2.72,-3.69 7.18,-5.93 11.77,-5.83 5.66,0.01 11.33,-0.1 16.99,0.05 1.95,-0.21 3.04,1.81 2.79,3.53 0,44.7 0,89.41 0,134.11 0.26,1.72 -0.79,3.82 -2.79,3.6 -7.01,0.08 -14.02,0.08 -21.03,-0.01 -2.57,0.07 -4.6,-1.74 -6.04,-3.67 -12.12,-15.22 -24.3,-30.39 -36.42,-45.61 -12.34,15.37 -24.61,30.79 -36.92,46.19 -1.32,1.69 -3.23,3.11 -5.47,3.08 -8.03,0.18 -16.07,-0.04 -24.11,0.09 -1.97,-0.13 -4.44,0.5 -5.66,-1.55 35.42,-44.82 71.32,-89.28 106.89,-133.98 m -19.97,64.84 c 8.32,10.35 16.52,20.79 24.9,31.08 0.06,-20.75 0.04,-41.49 0.02,-62.24 -8.33,10.37 -16.63,20.76 -24.92,31.16 z"
       id="path5"
       style="fill:#ffffff;fill-opacity:1" />
    <path
       fill="#ff4655"
       opacity="1"
       d="m 240.5,546.89 c -0.19,-1.58 0.67,-3.52 2.5,-3.48 7.05,-0.17 14.13,-0.1 21.19,-0.03 2.02,-0.22 3.28,1.78 2.96,3.63 0.04,37.46 0.02,74.92 0.01,112.39 19.6,0.07 39.2,-0.05 58.79,0.05 1.68,-0.36 2.73,1.77 1.4,2.9 -5.1,6.57 -10.37,13.02 -15.56,19.54 -1.57,2.12 -4.23,2.98 -6.79,2.79 -20.66,-0.07 -41.33,0.08 -61.99,-0.07 -1.9,0.08 -2.69,-1.98 -2.51,-3.57 0,-44.71 -0.01,-89.43 0,-134.15 z"
       id="path6"
       style="fill:#ffffff;fill-opacity:1" />
    <path
       fill="#ff4655"
       opacity="1"
       d="m 501.67,546.94 c -0.46,-2.06 1.2,-3.93 3.29,-3.59 35.72,-0.04 71.43,-0.02 107.14,-0.01 1.65,-0.23 3.6,0.8 3.44,2.68 0.11,9.68 0.02,19.37 0.04,29.05 0.21,2.31 -1.01,4.34 -2.43,6.04 -10.31,12.75 -20.45,25.63 -30.79,38.36 -0.51,0.9 -2.21,2.09 -0.92,3.13 15.62,19.64 31.37,39.19 46.97,58.84 1.13,0.94 1.15,3.18 -0.7,3.13 -9.26,0.2 -18.53,0.1 -27.79,0.05 -3.63,0.05 -5.68,-3.32 -7.69,-5.8 -14.34,-17.99 -28.69,-35.97 -43.08,-53.91 -1.07,-1.32 -2.71,-3.23 -1.22,-4.86 13.55,-17.2 27.35,-34.22 40.97,-51.38 -20.17,-0.09 -40.35,0.17 -60.51,-0.13 -0.36,37.8 0.02,75.62 -0.19,113.42 0.23,1.76 -1.59,2.93 -3.17,2.69 -7,0 -14,0.11 -21,-0.05 -1.86,0.02 -2.61,-2.07 -2.37,-3.62 0.01,-44.68 0,-89.36 0.01,-134.04 z"
       id="path7"
       style="fill:#ffffff;fill-opacity:1" />
    <path
       fill="#ff4655"
       opacity="1"
       d="m 651.16,547.01 c -0.32,-1.8 0.85,-3.86 2.87,-3.63 6.67,-0.12 13.36,-0.05 20.04,-0.03 2.5,-0.15 4.92,1.02 6.39,3.05 33.33,41.7 66.65,83.41 99.98,125.11 2.87,3.85 6.31,7.31 8.8,11.44 -0.24,0.39 -0.72,1.17 -0.96,1.56 -8.08,0.41 -16.19,0 -24.28,0.18 -3.19,0.05 -7.05,0.32 -9.16,-2.6 -12.52,-15.53 -24.92,-31.16 -37.38,-46.74 -12.34,15.36 -24.62,30.78 -36.92,46.17 -1.32,1.71 -3.25,3.11 -5.49,3.1 -6.98,0.1 -13.96,0.07 -20.93,0.02 -2.08,0.29 -3.29,-1.81 -2.96,-3.64 0,-44.66 0.01,-89.33 0,-133.99 m 26.61,35.91 c -0.03,20.74 -0.03,41.47 0,62.21 8.32,-10.36 16.6,-20.75 24.89,-31.13 -8.31,-10.35 -16.53,-20.78 -24.89,-31.08 z"
       id="path8"
       style="fill:#ffffff;fill-opacity:1" />
    <path
       fill="#ff4655"
       opacity="1"
       d="m 768.68,547.05 c -0.21,-1.55 0.48,-3.57 2.31,-3.61 6.65,-0.27 13.31,-0.04 19.96,-0.11 2.58,-0.17 5.28,0.68 6.85,2.84 25.65,32.02 51.2,64.12 76.87,96.12 0,-31.77 -0.01,-63.54 0,-95.32 -0.43,-2 1.13,-3.94 3.22,-3.62 7.04,0.01 14.08,-0.16 21.11,0.09 1.8,0.07 2.45,2.07 2.25,3.61 0,44.64 0,89.28 0,133.92 0.21,1.52 -0.46,3.58 -2.28,3.61 -6.99,0.2 -14,0.06 -20.99,0.07 -2.31,0.09 -4.5,-1.02 -5.86,-2.85 -25.62,-31.99 -51.15,-64.06 -76.79,-96.03 -0.03,18.75 0.05,37.51 -0.03,56.26 0.49,1.67 -1.89,3.1 -2.9,1.58 -7.36,-8.93 -14.47,-18.07 -21.73,-27.08 -1.62,-1.77 -2.14,-4.15 -2.02,-6.48 0.04,-21 -0.01,-42 0.03,-63 z"
       id="path9"
       style="fill:#ffffff;fill-opacity:1" />
    <path
       fill="#ff4655"
       opacity="1"
       d="m 919.64,546.01 c -0.21,-1.82 1.73,-2.87 3.32,-2.66 29.36,-0.05 58.72,0 88.08,-0.02 2.54,-0.16 5.2,0.67 6.75,2.81 5.2,6.48 10.45,12.94 15.56,19.5 1.35,1.1 0.34,3.28 -1.36,2.98 -15.35,0.12 -30.71,0 -46.07,0.05 -0.07,37.44 0.09,74.88 0.08,112.32 0.36,1.79 -0.87,3.85 -2.87,3.64 -7.01,0.06 -14.03,0.09 -21.03,-0.01 -1.49,0.13 -2.79,-1.19 -2.64,-2.66 -0.25,-37.76 -0.01,-75.53 -0.21,-113.29 -12.11,-0.03 -24.23,0.04 -36.33,-0.02 -1.61,0.19 -3.53,-0.92 -3.28,-2.74 -0.1,-6.63 -0.11,-13.27 0,-19.9 z"
       id="path10"
       style="fill:#ffffff;fill-opacity:1" />
  </g>
</svg>
